HIERARCHY
ROOT Model_Hips
{
	OFFSET 0.000000 96.915077 0.000000
	CHANNELS 6 Xposition Yposition Zposition Xrotation Yrotation Zrotation
	JOINT Model_Spine
	{
		OFFSET 0.000000 11.137703 -1.289900
		CHANNELS 3 Xrotation Yrotation Zrotation
		JOINT Model_Spine1
		{
			OFFSET 0.000000 12.993942 -1.504922
			CHANNELS 3 Xrotation Yrotation Zrotation
			JOINT Model_Spine2
			{
				OFFSET 0.000000 14.850220 -1.719911
				CHANNELS 3 Xrotation Yrotation Zrotation
				JOINT Model_Neck
				{
					OFFSET 0.000000 16.706543 -1.934903
					CHANNELS 3 Xrotation Yrotation Zrotation
					JOINT Model_Head
					{
						OFFSET 0.000000 10.471298 2.002100
						CHANNELS 3 Xrotation Yrotation Zrotation
						JOINT Model_HeadTop_End
						{
							OFFSET 0.000000 20.842606 3.985100
							CHANNELS 3 Xrotation Yrotation Zrotation
							End Site
							{
								OFFSET 0.000000 21.220154 0.000000
							}
						}
					}
				}
				JOINT Model_LeftShoulder
				{
					OFFSET 7.008500 14.768600 -1.919946
					CHANNELS 3 Xrotation Yrotation Zrotation
					JOINT Model_LeftArm
					{
						OFFSET 14.126271 -3.718048 0.029937
						CHANNELS 3 Xrotation Yrotation Zrotation
						JOINT Model_LeftForeArm
						{
							OFFSET 28.282801 0.000000 0.000000
							CHANNELS 3 Xrotation Yrotation Zrotation
							JOINT Model_LeftHand
							{
								OFFSET 26.204689 0.000000 0.000000
								CHANNELS 3 Xrotation Yrotation Zrotation
								End Site
								{
									OFFSET 26.204704 0.000000 0.000000
								}
							}
						}
					}
				}
				JOINT Model_RightShoulder
				{
					OFFSET -7.008500 14.768555 -1.949840
					CHANNELS 3 Xrotation Yrotation Zrotation
					JOINT Model_RightArm
					{
						OFFSET -14.126281 -3.718018 -0.029932
						CHANNELS 3 Xrotation Yrotation Zrotation
						JOINT Model_RightForeArm
						{
							OFFSET -28.283798 0.000000 -0.000001
							CHANNELS 3 Xrotation Yrotation Zrotation
							JOINT Model_RightHand
							{
								OFFSET -26.204193 0.000000 -0.000001
								CHANNELS 3 Xrotation Yrotation Zrotation
								End Site
								{
									OFFSET -26.204208 0.000000 -0.000001
								}
							}
						}
					}
				}
			}
		}
	}
	JOINT Model_LeftUpLeg
	{
		OFFSET 8.327700 -6.193199 -0.402800
		CHANNELS 3 Xrotation Yrotation Zrotation
		JOINT Model_LeftLeg
		{
			OFFSET 0.735802 -42.108742 -0.610721
			CHANNELS 3 Xrotation Yrotation Zrotation
			JOINT Model_LeftFoot
			{
				OFFSET -0.735806 -36.833748 -0.172876
				CHANNELS 3 Xrotation Yrotation Zrotation
				JOINT Model_LeftToeBase
				{
					OFFSET -0.565857 -11.977769 16.297714
					CHANNELS 3 Xrotation Yrotation Zrotation
					JOINT Model_LeftToe_End
					{
						OFFSET -0.111712 -0.312793 7.857784
						CHANNELS 3 Xrotation Yrotation Zrotation
						End Site
						{
							OFFSET -0.111712 -0.312793 7.857784
						}
					}
				}
			}
		}
	}
	JOINT Model_RightUpLeg
	{
		OFFSET -8.327700 -6.193199 -0.516500
		CHANNELS 3 Xrotation Yrotation Zrotation
		JOINT Model_RightLeg
		{
			OFFSET -0.735785 -42.108738 -0.434061
			CHANNELS 3 Xrotation Yrotation Zrotation
			JOINT Model_RightFoot
			{
				OFFSET 0.735776 -36.833748 -0.021630
				CHANNELS 3 Xrotation Yrotation Zrotation
				JOINT Model_RightToeBase
				{
					OFFSET 0.565817 -11.977745 15.903093
					CHANNELS 3 Xrotation Yrotation Zrotation
					JOINT Model_RightToe_End
					{
						OFFSET 0.111702 -0.312791 7.811342
						CHANNELS 3 Xrotation Yrotation Zrotation
						End Site
						{
							OFFSET 0.111702 -0.312791 7.811342
						}
					}
				}
			}
		}
	}
}
MOTION
Frames: 9
Frame Time: 0.016667
0.452803 96.261353 290.905975 15.240175 7.358964 -1.129345 6.657611 -4.863613 -1.132644 0.276668 -1.918565 0.627801 0.333198 -2.108483 0.126253 -1.118050 1.558548 3.185614 -4.736696 0.260679 -0.820085 0.000002 0.000000 -0.000000 0.760963 -7.409065 -4.435513 -4.313939 -29.145650 -56.982233 0.000002 -69.341590 -0.000002 0.000002 0.000003 -0.000003 -0.104981 -9.732524 10.795333 26.120848 20.631669 50.234419 0.000032 66.723059 -0.000010 0.000002 0.000002 -0.000001 -3.691132 0.723610 -3.834820 13.848338 6.495307 0.613523 -10.126529 2.459914 -1.428165 -15.140043 -0.020531 0.169870 0.000000 0.000000 -0.000000 -44.088092 -7.438948 -1.222639 83.029228 -6.809040 -3.571697 -1.105300 -11.566884 1.915067 -4.645235 0.000010 -0.000001 -0.000001 -0.000001 0.000001 
0.464801 96.971367 294.501465 15.545056 7.613116 -2.211395 6.766024 -5.318203 0.134931 -0.124173 -2.242981 0.855092 -0.079564 -2.372031 0.524288 -0.937582 1.697209 2.919764 -4.552257 0.289259 -0.773517 0.000001 0.000000 0.000000 0.790118 -8.896356 -3.256099 -4.948192 -28.072977 -59.340335 0.000019 -71.950080 0.000031 0.000002 0.000003 0.000003 -0.335368 -11.485781 10.697838 28.092534 18.675653 50.941818 0.000028 66.530141 -0.000012 -0.000000 0.000000 -0.000001 -1.713752 2.858420 -2.249956 12.331155 5.245990 1.254931 -5.207999 2.178178 -3.027337 -20.646882 -0.039185 0.232707 0.000000 -0.000001 -0.000000 -46.396109 -7.097497 -0.799033 77.554517 -7.162380 -3.383936 -1.564323 -12.044827 4.568502 -3.292848 -0.000003 -0.000003 -0.000004 -0.000001 0.000002 
0.433129 97.718346 298.340424 15.801965 7.911515 -3.213262 6.831717 -5.836240 1.370689 -0.557386 -2.605108 1.071915 -0.525008 -2.673811 0.903980 -0.801487 1.834570 2.641717 -4.424423 0.319947 -0.701300 0.000002 0.000000 -0.000000 0.893570 -9.942080 -2.119555 -5.156742 -26.806476 -61.022276 -0.000085 -74.811007 -0.000072 0.000002 0.000003 0.000000 -0.557522 -12.845350 10.596873 29.952306 17.087673 51.380600 0.000036 66.559148 -0.000038 -0.000000 0.000000 -0.000001 -1.752651 5.536407 -0.077824 14.194830 2.671822 1.177228 0.420535 1.658651 -4.145684 -28.393433 -0.065688 0.249468 0.000000 0.000002 0.000000 -48.257148 -6.745168 -0.137704 70.774413 -7.365046 -3.235326 -2.704117 -12.948175 5.679167 -1.696811 0.000005 0.000002 -0.000004 0.000000 -0.000000 
0.433570 98.406593 302.130493 16.554557 8.007268 -4.046113 6.877140 -6.378220 2.448838 -0.973984 -2.967694 1.271789 -0.952945 -2.983801 1.240964 -0.721498 1.957696 2.363307 -4.369045 0.341610 -0.596975 0.000002 -0.000000 0.000000 1.043590 -10.531926 -1.076203 -5.121352 -25.816274 -62.042071 0.000113 -77.774517 0.000144 -0.000001 0.000003 -0.000001 -0.770317 -13.711407 10.469049 31.539652 15.748748 51.695444 0.000054 66.812958 -0.000052 -0.000000 -0.000000 -0.000001 -1.508365 8.114838 1.872326 13.461283 1.192929 0.862124 8.103358 0.858548 -5.430054 -36.554261 -0.103536 0.244734 0.000000 0.000003 0.000000 -49.365674 -6.180487 0.574763 62.477052 -8.337906 -3.277896 -1.406786 -13.969601 5.978824 -1.301194 -0.000006 0.000002 0.000001 -0.000001 -0.000001 
0.496515 99.124451 306.093597 17.003102 7.926311 -4.566025 6.740457 -6.830700 3.219729 -1.218628 -3.261456 1.425954 -1.207174 -3.242164 1.483971 -0.715197 2.051661 2.100265 -4.383764 0.344379 -0.460470 0.000002 0.000000 -0.000000 1.212368 -10.776322 -0.117761 -5.061036 -25.495903 -62.472407 0.000042 -80.709128 0.000006 -0.000001 0.000001 0.000002 -0.958700 -14.104961 10.325889 32.649961 14.543298 52.009469 0.000033 67.084957 -0.000035 -0.000001 -0.000001 0.000000 -0.072687 9.929912 3.334423 10.827997 0.892999 0.872756 16.711367 -0.335053 -8.287303 -41.702184 -0.619831 1.000825 0.000001 0.000001 -0.000000 -49.009312 -5.388979 1.206269 52.698772 -7.512643 -3.628893 0.893694 -14.372156 6.266049 -1.411269 0.000003 0.000001 0.000001 0.000001 -0.000000 
0.612687 99.815399 310.525940 17.343124 7.804098 -4.577903 6.105884 -7.108595 3.648429 -1.126109 -3.422273 1.516015 -1.122705 -3.391182 1.600861 -0.775717 2.116482 1.837053 -4.445643 0.333776 -0.314251 -0.000000 -0.000000 0.000000 1.358753 -10.801819 0.639364 -5.078719 -26.054933 -62.381928 0.000128 -83.511944 0.000184 -0.000002 -0.000000 -0.000000 -1.105774 -14.213876 10.170255 33.240383 13.376049 52.358868 0.000015 67.168777 -0.000008 0.000000 -0.000001 -0.000001 0.859194 10.765185 3.609607 11.748920 1.713212 1.186478 19.281382 -0.685913 -8.007274 -34.762955 0.578388 -1.001304 0.000000 0.000001 0.000000 -47.525918 -4.495543 1.347576 41.225004 -7.236635 -4.190490 4.487795 -13.423104 8.281918 -1.424708 0.000004 -0.000003 0.000001 -0.000003 0.000001 
0.733820 100.270081 315.051025 17.449571 7.505842 -4.306643 5.404394 -7.098379 3.907786 -0.875324 -3.415225 1.561295 -0.877655 -3.387052 1.635735 -0.847166 2.163745 1.530635 -4.506594 0.322492 -0.188823 0.000001 -0.000000 0.000000 1.437647 -10.586756 0.983077 -5.200347 -27.332184 -61.953238 -0.000231 -85.967138 -0.000150 -0.000001 -0.000003 -0.000002 -1.229268 -14.190815 9.915324 33.479344 12.209162 52.785952 0.000018 67.110789 -0.000031 0.000000 0.000002 -0.000000 3.297070 10.988994 3.270244 10.963549 4.281558 1.459386 21.959427 -0.902146 -7.224455 -25.014439 2.102042 -4.886077 0.000000 0.000001 -0.000001 -45.314965 -3.938862 1.280393 30.658090 -7.609189 -4.647549 6.877001 -10.927822 10.579742 -1.518039 -0.000006 0.000003 -0.000001 0.000001 0.000000 
0.857058 100.366280 319.578339 16.968302 6.710663 -3.736717 4.829120 -6.780212 4.163711 -0.545124 -3.278504 1.580134 -0.552608 -3.257973 1.633098 -0.848313 2.202026 1.164722 -4.503063 0.316226 -0.096359 -0.000000 0.000000 -0.000000 1.437238 -10.056000 0.845541 -5.515877 -28.827985 -61.539062 -0.000321 -87.713617 -0.000155 -0.000000 -0.000001 0.000001 -1.345491 -13.984682 9.554779 33.544640 11.057197 53.251368 0.000007 67.009333 -0.000008 -0.000000 -0.000001 -0.000000 5.622739 10.671323 2.705238 12.865382 6.261288 1.834120 21.381439 -1.002975 -7.219473 -8.734658 0.867376 -6.588204 -0.000003 -0.000002 0.000001 -43.070650 -3.844078 1.112808 22.483270 -8.177204 -4.730122 6.918274 -7.272251 13.143021 -1.759771 0.000009 -0.000000 0.000000 -0.000001 -0.000000 
0.918252 100.193977 324.212433 16.353570 6.330501 -3.414249 4.429072 -6.321407 4.430965 -0.204623 -3.116793 1.597562 -0.217742 -3.103255 1.632859 -0.730870 2.233303 0.783605 -4.391865 0.312502 -0.027826 -0.000000 0.000000 -0.000000 1.391648 -9.272555 0.390457 -6.090002 -29.993915 -61.478061 0.000193 -88.481891 0.000382 -0.000002 0.000001 0.000001 -1.414409 -13.474677 9.310411 33.482906 9.948354 53.498082 0.000011 66.828299 0.000002 -0.000001 -0.000000 0.000001 6.329394 9.623986 2.147703 18.714194 6.676952 2.610844 19.071891 -0.854613 -6.800242 -1.653644 -0.000004 -0.000000 0.000001 0.000001 -0.000001 -41.267450 -4.045404 0.652335 16.705714 -8.891662 -4.300657 8.062446 -3.381695 17.004979 -1.972946 0.000003 0.000013 0.000000 -0.000000 -0.000001 
